<svg xmlns="http://www.w3.org/2000/svg" xmlns:xlink="http://www.w3.org/1999/xlink" viewBox="0,0,256,256" width="70px" height="70px"><g transform=""><g fill="#008bff" fill-rule="nonzero" stroke="none" stroke-width="1" stroke-linecap="butt" stroke-linejoin="miter" stroke-miterlimit="10" stroke-dasharray="" stroke-dashoffset="0" font-family="none" font-weight="none" font-size="none" text-anchor="none" style="mix-blend-mode: normal"><path d="M128,256c-70.69245,0 -128,-57.30755 -128,-128v0c0,-70.69245 57.30755,-128 128,-128v0c70.69245,0 128,57.30755 128,128v0c0,70.69245 -57.30755,128 -128,128z" id="shape"></path></g><g fill="none" fill-rule="nonzero" stroke="none" stroke-width="1" stroke-linecap="butt" stroke-linejoin="miter" stroke-miterlimit="10" stroke-dasharray="" stroke-dashoffset="0" font-family="none" font-weight="none" font-size="none" text-anchor="none" style="mix-blend-mode: normal"><g transform="scale(5.33333,5.33333)"><path d="M11,24l14,-22l14,22l-14,8z" fill="#ffffff"></path><path d="M25,2l14,22l-14,8z" fill="#c0c8f4"></path><path d="M11,27l14,8l14,-8l-14,19z" fill="#ffffff"></path><path d="M25,35l14,-8l-14,19zM11,24l14,-6l14,6l-14,8z" fill="#c0c8f4"></path><path d="M25,18l14,6l-14,8z" fill="#a4aacc"></path></g></g></g></svg>